<?xml version="1.0" encoding="utf-8"?>
<!-- Svg Vector Icons : http://www.onlinewebfonts.com/icon -->
<!DOCTYPE svg PUBLIC "-//W3C//DTD SVG 1.1//EN" "http://www.w3.org/Graphics/SVG/1.1/DTD/svg11.dtd">
<svg version="1.1" xmlns="http://www.w3.org/2000/svg" xmlns:xlink="http://www.w3.org/1999/xlink" x="0px" y="0px" viewBox="0 0 1000 1000" enable-background="new 0 0 1000 1000" xml:space="preserve">
<metadata> Svg Vector Icons : http://www.onlinewebfonts.com/icon </metadata>
<g><path d="M500,10C230.5,10,10,230.5,10,500s220.5,490,490,490s490-220.5,490-490S769.5,10,500,10z M500,157c83.3,0,147,63.7,147,147s-63.7,147-147,147s-147-63.7-147-147S416.7,157,500,157z M500,852.8c-122.5,0-230.3-63.7-294-156.8c0-98,196-151.9,294-151.9S794,598,794,696C730.3,789.1,622.5,852.8,500,852.8z"/></g>
</svg>